<?xml version="1.0" encoding="UTF-8" standalone="no"?>
<svg
   xmlns:dc="http://purl.org/dc/elements/1.1/"
   xmlns:cc="http://creativecommons.org/ns#"
   xmlns:rdf="http://www.w3.org/1999/02/22-rdf-syntax-ns#"
   xmlns:svg="http://www.w3.org/2000/svg"
   xmlns="http://www.w3.org/2000/svg"
   xmlns:sodipodi="http://sodipodi.sourceforge.net/DTD/sodipodi-0.dtd"
   xmlns:inkscape="http://www.inkscape.org/namespaces/inkscape"
   width="113.92229mm"
   height="127.13277mm"
   viewBox="0 0 113.92229 127.13277"
   version="1.1"
   id="svg8"
   inkscape:version="1.0 (1.0+r73+1)"
   sodipodi:docname="rocket.svg"
   inkscape:export-filename="/home/awesomewaterapple/fun/rocket-pirates/src/pages/game/images/rocket.png"
   inkscape:export-xdpi="96"
   inkscape:export-ydpi="96">
  <defs
     id="defs2" />
  <sodipodi:namedview
     fit-margin-bottom="0"
     fit-margin-right="0"
     fit-margin-left="0"
     fit-margin-top="0"
     inkscape:snap-global="false"
     id="base"
     pagecolor="#ffffff"
     bordercolor="#666666"
     borderopacity="1.0"
     inkscape:pageopacity="0.0"
     inkscape:pageshadow="2"
     inkscape:zoom="1.0829562"
     inkscape:cx="136.10126"
     inkscape:cy="225.2134"
     inkscape:document-units="mm"
     inkscape:current-layer="layer1"
     inkscape:document-rotation="0"
     showgrid="false"
     showguides="true"
     inkscape:window-width="1848"
     inkscape:window-height="1016"
     inkscape:window-x="72"
     inkscape:window-y="27"
     inkscape:window-maximized="1" />
  <metadata
     id="metadata5">
    <rdf:RDF>
      <cc:Work
         rdf:about="">
        <dc:format>image/svg+xml</dc:format>
        <dc:type
           rdf:resource="http://purl.org/dc/dcmitype/StillImage" />
        <dc:title />
      </cc:Work>
    </rdf:RDF>
  </metadata>
  <g
     transform="translate(-47.930754,-35.787544)"
     inkscape:label="Layer 1"
     inkscape:groupmode="layer"
     id="layer1">
    <path
       id="path893"
       d="m 89.210767,154.46095 -0.04923,1.64764 c 0,0 14.081043,3.73729 31.820763,-0.0666 l -0.015,-1.69955 z"
       style="fill:#737373;fill-opacity:1;stroke:none;stroke-width:0.264583px;stroke-linecap:butt;stroke-linejoin:miter;stroke-opacity:1" />
    <path
       d="m 104.99999,35.787544 c 0,0 24.29227,39.30924 27.32817,100.663406 0,0 -16.35763,8.68338 -22.15606,6.95297 M 104.99999,35.787544 c 0,0 -24.292256,39.309233 -27.328149,100.663406 0,0 15.840717,8.4891 21.63914,6.75869 l 10.861119,0.19428"
       style="fill:#ff7f2a;fill-opacity:1;stroke:none;stroke-width:0.264583px;stroke-linecap:butt;stroke-linejoin:miter;stroke-opacity:1"
       id="path856-6" />
    <path
       style="fill:#000000;fill-opacity:1;stroke:none;stroke-width:0.264583px;stroke-linecap:butt;stroke-linejoin:miter;stroke-opacity:1"
       d="m 129.5757,110.75543 29.18324,32.10009 c 0,0 5.38519,11.21951 1.94655,13.80488 -3.43865,2.58536 -42.36374,-14.24074 -42.36374,-14.24074"
       id="path875"
       sodipodi:nodetypes="ccsc" />
    <path
       sodipodi:nodetypes="ccsc"
       id="path892"
       d="m 80.208097,110.41408 -29.18324,32.10009 c 0,0 -5.38519,11.21951 -1.94655,13.80488 3.43865,2.58536 42.36374,-14.24074 42.36374,-14.24074"
       style="fill:#000000;fill-opacity:1;stroke:none;stroke-width:0.264583px;stroke-linecap:butt;stroke-linejoin:miter;stroke-opacity:1" />
    <path
       style="fill:#000000;fill-opacity:1;stroke:#000000;stroke-width:0.264583px;stroke-linecap:butt;stroke-linejoin:miter;stroke-opacity:1"
       d="m 91.442045,142.07831 -2.231277,12.38264 c 0,0 15.732702,3.60824 31.756522,-0.11851 l -2.62554,-11.92278"
       id="path911"
       sodipodi:nodetypes="cccc" />
    <path
       sodipodi:nodetypes="ccc"
       id="path1020"
       d="m 104.80067,117.7566 c 0,0 -8.196434,25.75366 -5.060921,39.24123 0,0 2.987061,6.70606 5.105011,5.84636"
       style="fill:#803300;fill-opacity:1;stroke:none;stroke-width:0.203428px;stroke-linecap:butt;stroke-linejoin:miter;stroke-opacity:1" />
    <path
       sodipodi:nodetypes="ccc"
       id="path857-3"
       d="m 104.80067,117.7566 c 0,0 8.04685,25.75366 4.91133,39.24123 0,0 -2.98706,6.70606 -5.105,5.84636"
       style="fill:#803300;fill-opacity:1;stroke:none;stroke-width:0.203428px;stroke-linecap:butt;stroke-linejoin:miter;stroke-opacity:1" />
    <path
       sodipodi:nodetypes="ccccc"
       id="path913"
       d="m 94.986881,61.519334 4.015579,-4.044874 1.53716,3.881682 -3.962302,4.161895 z"
       style="fill:#000000;fill-opacity:1;stroke:#ffffff;stroke-width:0.264583px;stroke-linecap:butt;stroke-linejoin:miter;stroke-opacity:1" />
    <path
       sodipodi:nodetypes="ccccc"
       id="path915"
       d="m 104.41834,59.493636 -0.0842,-4.549772 -4.75016,2.02978 1.6173,3.847305 z"
       style="fill:#000000;fill-opacity:1;stroke:#ffffff;stroke-width:0.264583px;stroke-linecap:butt;stroke-linejoin:miter;stroke-opacity:1" />
    <path
       sodipodi:nodetypes="ccccc"
       style="fill:#000000;fill-opacity:1;stroke:#ffffff;stroke-width:0.264583px;stroke-linecap:butt;stroke-linejoin:miter;stroke-opacity:1"
       d="m 114.66702,61.475314 -4.01558,-4.044874 -2.00939,3.492302 4.43453,4.551275 z"
       id="path913-5" />
    <path
       style="fill:#000000;fill-opacity:1;stroke:#ffffff;stroke-width:0.264583px;stroke-linecap:butt;stroke-linejoin:miter;stroke-opacity:1"
       d="m 105.23556,59.449616 0.25217,-4.570797 4.58222,2.050805 -2.06133,3.78246 z"
       id="path915-3"
       sodipodi:nodetypes="ccccc" />
    <path
       sodipodi:nodetypes="ccccccccccc"
       id="path935"
       d="m 101.96368,66.766505 1.05254,-1.8895 2.03251,-0.888117 2.18629,0.874578 0.78526,1.957213 -0.007,47.697391 -0.90302,1.25738 -2.04383,0.73599 -1.94817,-0.80324 -1.11687,-1.16513 z"
       style="fill:#ffffff;fill-opacity:1;stroke:none;stroke-width:0.264583px;stroke-linecap:butt;stroke-linejoin:miter;stroke-opacity:1" />
    <rect
       y="66.812531"
       x="102.86368"
       height="1.2498318"
       width="1.2431406"
       id="rect937"
       style="fill:#000000;fill-opacity:1;stroke:#939393;stroke-width:0.397;stroke-linecap:round;stroke-miterlimit:4;stroke-dasharray:none;stroke-opacity:1;paint-order:fill markers stroke" />
    <rect
       style="fill:#000000;fill-opacity:1;stroke:#939393;stroke-width:0.397;stroke-linecap:round;stroke-miterlimit:4;stroke-dasharray:none;stroke-opacity:1;paint-order:fill markers stroke"
       id="rect941"
       width="1.2431406"
       height="1.2498318"
       x="105.89318"
       y="66.823578" />
    <path
       id="path951"
       d="m 101.93306,97.623523 6.10932,-0.006"
       style="fill:none;stroke:#939393;stroke-width:0.264583px;stroke-linecap:butt;stroke-linejoin:miter;stroke-opacity:1" />
    <path
       sodipodi:nodetypes="cc"
       id="path953"
       d="m 105.04873,63.988888 0.0177,52.522552"
       style="fill:none;stroke:#939393;stroke-width:0.264583px;stroke-linecap:butt;stroke-linejoin:miter;stroke-opacity:1" />
    <g
       style="stroke:#ffffff;stroke-opacity:1"
       id="g1006">
      <path
         style="fill:#000000;fill-opacity:1;stroke:#ffffff;stroke-width:0.264583px;stroke-linecap:butt;stroke-linejoin:miter;stroke-opacity:1"
         d="m 91.933269,70.571222 2.6058,1.56719 -0.603102,5.379604 -3.258534,-0.806442 z"
         id="path967" />
      <path
         style="fill:#000000;fill-opacity:1;stroke:#ffffff;stroke-width:0.264583px;stroke-linecap:butt;stroke-linejoin:miter;stroke-opacity:1"
         d="m 89.703978,83.703078 3.526116,0.297145 -0.183039,5.357368 -3.507774,-0.269647 z"
         id="path969" />
      <path
         id="path969-5"
         d="m 90.050676,102.37272 3.526117,-0.29714 -0.183039,-5.35737 -3.507775,0.26964 z"
         style="fill:#000000;fill-opacity:1;stroke:#ffffff;stroke-width:0.264583px;stroke-linecap:butt;stroke-linejoin:miter;stroke-opacity:1" />
      <rect
         style="opacity:1;fill:#000000;fill-opacity:1;stroke:#ffffff;stroke-width:0.396999;stroke-linecap:round;stroke-miterlimit:4;stroke-dasharray:none;stroke-opacity:1;paint-order:fill markers stroke"
         id="rect986"
         width="5.5553746"
         height="4.081749"
         x="91.035683"
         y="112.36112" />
    </g>
    <g
       style="stroke:#ffffff;stroke-opacity:1"
       transform="matrix(-1,0,0,1,210.08406,-2.22e-4)"
       id="g1000">
      <path
         id="path988"
         d="m 91.933269,70.571222 2.6058,1.56719 -0.603102,5.379604 -3.258534,-0.806442 z"
         style="fill:#000000;fill-opacity:1;stroke:#ffffff;stroke-width:0.264583px;stroke-linecap:butt;stroke-linejoin:miter;stroke-opacity:1" />
      <path
         id="path990"
         d="m 89.703978,83.703078 3.526116,0.297145 -0.183039,5.357368 -3.507774,-0.269647 z"
         style="fill:#000000;fill-opacity:1;stroke:#ffffff;stroke-width:0.264583px;stroke-linecap:butt;stroke-linejoin:miter;stroke-opacity:1" />
      <path
         style="fill:#000000;fill-opacity:1;stroke:#ffffff;stroke-width:0.264583px;stroke-linecap:butt;stroke-linejoin:miter;stroke-opacity:1"
         d="m 90.050676,102.37272 3.526117,-0.29714 -0.183039,-5.35737 -3.507775,0.26964 z"
         id="path992" />
      <rect
         y="112.36112"
         x="91.035683"
         height="4.081749"
         width="5.5553746"
         id="rect994"
         style="opacity:1;fill:#000000;fill-opacity:1;stroke:#ffffff;stroke-width:0.396999;stroke-linecap:round;stroke-miterlimit:4;stroke-dasharray:none;stroke-opacity:1;paint-order:fill markers stroke" />
    </g>
    <path
       style="fill:#803300;fill-opacity:1;stroke:none;stroke-width:0.264583px;stroke-linecap:butt;stroke-linejoin:miter;stroke-opacity:1"
       d="m 118.34175,142.41966 4.41617,-62.26701 c 0,0 5.24192,19.153109 6.81778,30.60278 z"
       id="path1109-2" />
    <path
       id="path1109"
       d="M 91.442046,142.07831 87.025875,79.811305 c 0,0 -5.24192,19.153109 -6.817778,30.602775 z"
       style="fill:#803300;fill-opacity:1;stroke:none;stroke-width:0.264583px;stroke-linecap:butt;stroke-linejoin:miter;stroke-opacity:1" />
    <path
       style="fill:none;stroke:#939393;stroke-width:0.264583px;stroke-linecap:butt;stroke-linejoin:miter;stroke-opacity:1"
       d="m 102.00161,83.280313 3.06801,-3.293235 2.99453,3.132746"
       id="path47"
       sodipodi:nodetypes="ccc" />
    <path
       id="path51"
       d="m 48.300474,155.38617 c 0,0 0.120758,7.76829 42.543193,-10.59849 l 0.598378,-2.70937 c 0,0 -42.487674,18.26188 -43.141571,13.30786 z"
       style="fill:#333333;fill-opacity:1;stroke:none;stroke-width:0.264583px;stroke-linecap:butt;stroke-linejoin:miter;stroke-opacity:1" />
    <path
       style="fill:#333333;fill-opacity:1;stroke:none;stroke-width:0.264583px;stroke-linecap:butt;stroke-linejoin:miter;stroke-opacity:1"
       d="m 161.48332,155.72752 c 0,0 -0.12076,7.76829 -42.54319,-10.59849 l -0.59838,-2.70937 c 0,0 42.48768,18.26188 43.14157,13.30786 z"
       id="path51-3" />
    <path
       id="path891"
       d="m 104.80067,117.7566 0.0441,45.08759"
       style="fill:none;stroke:#00005e;stroke-width:0.665;stroke-linecap:round;stroke-linejoin:miter;stroke-miterlimit:4;stroke-dasharray:none;stroke-opacity:1" />
    <path
       sodipodi:nodetypes="ccscccccc"
       id="path53"
       d="m 131.68312,141.31257 c 11.76465,-7.55129 12.71863,-6.94998 12.71863,-6.94998 1.60315,-0.34318 -0.77635,-1.17613 -0.77635,-1.17613 0.64384,-1.46592 -1.24095,-1.32263 -1.1288,-0.81245 0.11214,0.51017 -1.09577,1.18433 -1.09577,1.18433 l -11.44115,7.03813 c 0,0 -2.08982,-0.23506 -1.5252,1.01444 0,0 0.69405,0.87499 1.35307,0.27335 0,0 -1.06082,1.92209 0.79032,1.68286 0,0 0.69943,-0.3952 0.63957,-1.55284 z"
       style="fill:#999999;stroke:#000000;stroke-width:0.264583px;stroke-linecap:butt;stroke-linejoin:miter;stroke-opacity:1" />
    <path
       style="fill:#999999;stroke:#000000;stroke-width:0.264583px;stroke-linecap:butt;stroke-linejoin:miter;stroke-opacity:1"
       d="m 145.26172,140.28173 c -11.76465,-7.55129 -12.71863,-6.94998 -12.71863,-6.94998 -1.60315,-0.34318 0.77635,-1.17613 0.77635,-1.17613 -0.64384,-1.46592 1.24095,-1.32263 1.1288,-0.81245 -0.11214,0.51017 1.09577,1.18433 1.09577,1.18433 l 11.44115,7.03813 c 0,0 2.08982,-0.23506 1.5252,1.01444 0,0 -0.69405,0.87499 -1.35307,0.27335 0,0 1.06082,1.92209 -0.79032,1.68286 0,0 -0.69943,-0.3952 -0.63957,-1.55284 z"
       id="path53-3"
       sodipodi:nodetypes="ccscccccc" />
    <path
       sodipodi:nodetypes="cccccccccc"
       id="path70"
       d="m 135.72236,128.52108 c 0,0 -0.95073,-3.47259 2.28507,-3.89196 0,0 3.02117,0.0482 2.57516,3.46592 0,0 -0.84438,0.11996 -0.57932,1.28799 0,0 1.65508,-0.14254 -0.16739,0.93961 0,0 -0.28118,0.22005 -0.0754,0.62523 l -1.99154,0.30201 c 0,0 0.019,-0.85546 -0.59628,-0.52337 0,0 -1.50805,-0.0229 -0.372,-0.84344 0,0 0.12164,-1.93549 -1.0783,-1.36199 z"
       style="fill:#808080;stroke:none;stroke-width:0.264583px;stroke-linecap:butt;stroke-linejoin:miter;stroke-opacity:1" />
    <path
       id="path72"
       d="m 137.18393,131.32029 c 0,0 0.52686,-0.0307 0.66333,0.59117 0,0 1.2035,1.01055 2.16376,-0.24252 0,0 0.019,-0.91107 0.69206,-0.87594 l 0.079,0.9154 c 0,0 0.31232,0.33987 -0.48282,1.01226 l -1.93303,0.40348 c 0,0 -0.86438,-0.0396 -0.96363,-0.6009 z"
       style="fill:#808080;stroke:none;stroke-width:0.264583px;stroke-linecap:butt;stroke-linejoin:miter;stroke-opacity:1" />
    <rect
       transform="rotate(-7.8787686)"
       y="148.93509"
       x="118.64515"
       height="0.30716518"
       width="0.21065512"
       id="rect76"
       style="opacity:1;fill:#ffffff;stroke:none;stroke-width:0.504526;stroke-linecap:round;paint-order:fill markers stroke" />
    <rect
       style="opacity:1;fill:#ffffff;stroke:none;stroke-width:0.504526;stroke-linecap:round;paint-order:fill markers stroke"
       id="rect76-6"
       width="0.21065512"
       height="0.30716518"
       x="118.9258"
       y="148.93602"
       transform="rotate(-7.8787685)" />
    <rect
       transform="rotate(-7.8787685)"
       y="148.93748"
       x="119.20296"
       height="0.30716518"
       width="0.21065512"
       id="rect76-6-7"
       style="opacity:1;fill:#ffffff;stroke:none;stroke-width:0.504526;stroke-linecap:round;paint-order:fill markers stroke" />
    <rect
       transform="rotate(-7.8787685)"
       y="148.93391"
       x="119.46152"
       height="0.30716518"
       width="0.21065512"
       id="rect76-6-5"
       style="opacity:1;fill:#ffffff;stroke:none;stroke-width:0.504526;stroke-linecap:round;paint-order:fill markers stroke" />
    <rect
       transform="rotate(-7.8787685)"
       y="148.92534"
       x="119.71635"
       height="0.30716518"
       width="0.21065512"
       id="rect76-6-3"
       style="opacity:1;fill:#ffffff;stroke:none;stroke-width:0.504526;stroke-linecap:round;paint-order:fill markers stroke" />
    <rect
       transform="rotate(-7.8787685)"
       y="148.92511"
       x="119.97711"
       height="0.30716518"
       width="0.21065512"
       id="rect76-6-56"
       style="opacity:1;fill:#ffffff;stroke:none;stroke-width:0.504526;stroke-linecap:round;paint-order:fill markers stroke" />
    <rect
       transform="rotate(-7.8787685)"
       y="148.90988"
       x="120.24778"
       height="0.30716518"
       width="0.21065512"
       id="rect76-6-2"
       style="opacity:1;fill:#ffffff;stroke:none;stroke-width:0.504526;stroke-linecap:round;paint-order:fill markers stroke" />
    <rect
       transform="rotate(-41.606548)"
       y="191.11169"
       x="16.846828"
       height="0.30716518"
       width="0.21065512"
       id="rect76-6-9"
       style="opacity:1;fill:#ffffff;stroke:none;stroke-width:0.504526;stroke-linecap:round;paint-order:fill markers stroke" />
    <rect
       style="opacity:1;fill:#ffffff;stroke:none;stroke-width:0.504526;stroke-linecap:round;paint-order:fill markers stroke"
       id="rect76-6-9-1"
       width="0.21065512"
       height="0.30716518"
       x="47.995312"
       y="185.68294"
       transform="rotate(-32.065214)" />
    <rect
       style="opacity:1;fill:#ffffff;stroke:none;stroke-width:0.504526;stroke-linecap:round;paint-order:fill markers stroke"
       id="rect76-6-9-2"
       width="0.21065512"
       height="0.30716518"
       x="89.400787"
       y="169.53307"
       transform="rotate(-18.678405)" />
    <rect
       style="opacity:1;fill:#ffffff;stroke:none;stroke-width:0.504526;stroke-linecap:round;paint-order:fill markers stroke"
       id="rect76-6-9-7"
       width="0.21065512"
       height="0.30716518"
       x="140.29115"
       y="130.34901"
       transform="rotate(0.66344782)" />
    <rect
       style="opacity:1;fill:#ffffff;stroke:none;stroke-width:0.504526;stroke-linecap:round;paint-order:fill markers stroke"
       id="rect76-6-9-0"
       width="0.21065512"
       height="0.30716518"
       x="183.01141"
       y="54.38747"
       transform="rotate(27.07404)" />
    <rect
       style="opacity:1;fill:#ffffff;stroke:none;stroke-width:0.504526;stroke-linecap:round;paint-order:fill markers stroke"
       id="rect76-6-9-9"
       width="0.21065512"
       height="0.30716518"
       x="15.767579"
       y="190.5679"
       transform="rotate(-41.606548)" />
    <ellipse
       ry="0.58211887"
       rx="0.57575512"
       cy="128.6566"
       cx="137.56801"
       id="path177"
       style="opacity:1;fill:#000000;stroke:none;stroke-width:0.665001;stroke-linecap:round;paint-order:fill markers stroke" />
    <ellipse
       style="opacity:1;fill:#000000;stroke:none;stroke-width:0.665001;stroke-linecap:round;paint-order:fill markers stroke"
       id="path177-3"
       cx="139.01886"
       cy="128.42453"
       rx="0.57575512"
       ry="0.58211887" />
  </g>
</svg>
